{
  "accessors": [
    {
      "bufferView": 2,
      "componentType": 5126,
      "count": 2541,
      "max": [
        215.85630798339844,
        182.43133544921875,
        202.50857543945313
      ],
      "min": [
        -291.5299072265625,
        -8.870490074157715,
        -139.5817413330078
      ],
      "type": "VEC3"
    },
    {
      "bufferView": 2,
      "byteOffset": 30492,
      "componentType": 5126,
      "count": 2541,
      "max": [
        1.0,
        1.0,
        1.0
      ],
      "min": [
        -1.0,
        -1.0,
        -1.0
      ],
      "type": "VEC3"
    },
    {
      "bufferView": 3,
      "componentType": 5126,
      "count": 2541,
      "max": [
        1.0,
        1.0,
        1.0,
        1.0
      ],
      "min": [
        -1.0,
        -0.9999933838844299,
        -1.0,
        -1.0
      ],
      "type": "VEC4"
    },
    {
      "bufferView": 1,
      "componentType": 5126,
      "count": 2541,
      "max": [
        0.998084306716919,
        0.9902432560920715
      ],
      "min": [
        0.008516225963830948,
        0.007501125335693359
      ],
      "type": "VEC2"
    },
    {
      "bufferView": 1,
      "byteOffset": 20328,
      "componentType": 5126,
      "count": 2541,
      "max": [
        0.998084306716919,
        0.9902432560920715
      ],
      "min": [
        0.008516225963830948,
        0.007501125335693359
      ],
      "type": "VEC2"
    },
    {
      "bufferView": 1,
      "byteOffset": 40656,
      "componentType": 5126,
      "count": 2541,
      "max": [
        0.998084306716919,
        0.9902432560920715
      ],
      "min": [
        0.008516225963830948,
        0.007501125335693359
      ],
      "type": "VEC2"
    },
    {
      "bufferView": 0,
      "componentType": 5125,
      "count": 10824,
      "type": "SCALAR"
    }
  ],
  "asset": {
    "extras": {
      "author": "Lanzaman (https://sketchfab.com/lanzaboy)",
      "license": "CC-BY-4.0 (http://creativecommons.org/licenses/by/4.0/)",
      "source": "https://sketchfab.com/3d-models/canarian-cafe-cash-register-a785cf24aa624c30a69b59c60c473d8d",
      "title": "Canarian Cafe -cash register"
    },
    "generator": "Sketchfab-16.56.0",
    "version": "2.0"
  },
  "bufferViews": [
    {
      "buffer": 0,
      "byteLength": 43296,
      "name": "floatBufferViews",
      "target": 34963
    },
    {
      "buffer": 0,
      "byteLength": 60984,
      "byteOffset": 43296,
      "byteStride": 8,
      "name": "floatBufferViews",
      "target": 34962
    },
    {
      "buffer": 0,
      "byteLength": 60984,
      "byteOffset": 104280,
      "byteStride": 12,
      "name": "floatBufferViews",
      "target": 34962
    },
    {
      "buffer": 0,
      "byteLength": 40656,
      "byteOffset": 165264,
      "byteStride": 16,
      "name": "floatBufferViews",
      "target": 34962
    }
  ],
  "buffers": [
    {
      "byteLength": 205920,
      "uri": "scene.bin"
    }
  ],
  "images": [
    {
      "uri": "textures/cash_register_baseColor.png"
    },
    {
      "uri": "textures/cash_register_metallicRoughness.png"
    },
    {
      "uri": "textures/cash_register_emissive.png"
    },
    {
      "uri": "textures/cash_register_normal.png"
    }
  ],
  "materials": [
    {
      "doubleSided": true,
      "emissiveFactor": [
        1.0,
        1.0,
        1.0
      ],
      "emissiveTexture": {
        "index": 2
      },
      "name": "cash_register",
      "normalTexture": {
        "index": 3,
        "texCoord": 1
      },
      "pbrMetallicRoughness": {
        "baseColorTexture": {
          "index": 0
        },
        "metallicFactor": 0.36606229519524647,
        "metallicRoughnessTexture": {
          "index": 1
        }
      }
    }
  ],
  "meshes": [
    {
      "name": "cable_1_cash register_0",
      "primitives": [
        {
          "attributes": {
            "NORMAL": 1,
            "POSITION": 0,
            "TANGENT": 2,
            "TEXCOORD_0": 3,
            "TEXCOORD_1": 4,
            "TEXCOORD_2": 5
          },
          "indices": 6,
          "material": 0,
          "mode": 4
        }
      ]
    }
  ],
  "nodes": [
    {
      "children": [
        1
      ],
      "matrix": [
        1.0,
        0.0,
        0.0,
        0.0,
        0.0,
        2.220446049250313e-16,
        -1.0,
        0.0,
        0.0,
        1.0,
        2.220446049250313e-16,
        0.0,
        0.0,
        0.0,
        0.0,
        1.0
      ],
      "name": "Sketchfab_model"
    },
    {
      "children": [
        2
      ],
      "matrix": [
        0.009999999776482582,
        0.0,
        0.0,
        0.0,
        0.0,
        0.0,
        0.009999999776482582,
        0.0,
        0.0,
        -0.009999999776482582,
        0.0,
        0.0,
        0.0,
        0.0,
        0.0,
        1.0
      ],
      "name": "3ebcb39bc2bd42bf967dbb4fb42d7f37.fbx"
    },
    {
      "children": [
        3
      ],
      "name": "RootNode"
    },
    {
      "children": [
        4
      ],
      "matrix": [
        1.0,
        0.0,
        0.0,
        0.0,
        0.0,
        1.0,
        0.0,
        0.0,
        0.0,
        0.0,
        1.0,
        0.0,
        0.8662082552909851,
        0.8764909505844116,
        3.4704062938690186,
        1.0
      ],
      "name": "cable_1"
    },
    {
      "mesh": 0,
      "name": "cable_1_cash register_0"
    }
  ],
  "samplers": [
    {
      "magFilter": 9729,
      "minFilter": 9987,
      "wrapS": 10497,
      "wrapT": 10497
    }
  ],
  "scene": 0,
  "scenes": [
    {
      "name": "Sketchfab_Scene",
      "nodes": [
        0
      ]
    }
  ],
  "textures": [
    {
      "sampler": 0,
      "source": 0
    },
    {
      "sampler": 0,
      "source": 1
    },
    {
      "sampler": 0,
      "source": 2
    },
    {
      "sampler": 0,
      "source": 3
    }
  ]
}
