{
  "accessors": [
    {
      "bufferView": 2,
      "componentType": 5126,
      "count": 1907,
      "max": [
        1.0,
        2.0,
        1.0
      ],
      "min": [
        -1.0,
        0.0,
        -1.0
      ],
      "type": "VEC3"
    },
    {
      "bufferView": 2,
      "byteOffset": 22884,
      "componentType": 5126,
      "count": 1907,
      "max": [
        1.0,
        1.0,
        1.0
      ],
      "min": [
        -1.0,
        -1.0,
        -1.0
      ],
      "type": "VEC3"
    },
    {
      "bufferView": 3,
      "componentType": 5126,
      "count": 1907,
      "max": [
        1.0,
        1.0,
        1.0,
        1.0
      ],
      "min": [
        -1.0,
        -1.0,
        -0.9944881796836853,
        -1.0
      ],
      "type": "VEC4"
    },
    {
      "bufferView": 1,
      "componentType": 5126,
      "count": 1907,
      "max": [
        1.1332610845565796,
        1.13326096534729
      ],
      "min": [
        -0.13326090574264526,
        -0.1332610845565796
      ],
      "type": "VEC2"
    },
    {
      "bufferView": 1,
      "byteOffset": 15256,
      "componentType": 5126,
      "count": 1907,
      "max": [
        1.1332610845565796,
        1.13326096534729
      ],
      "min": [
        -0.13326090574264526,
        -0.1332610845565796
      ],
      "type": "VEC2"
    },
    {
      "bufferView": 1,
      "byteOffset": 30512,
      "componentType": 5126,
      "count": 1907,
      "max": [
        1.1332610845565796,
        1.13326096534729
      ],
      "min": [
        -0.13326090574264526,
        -0.1332610845565796
      ],
      "type": "VEC2"
    },
    {
      "bufferView": 1,
      "byteOffset": 45768,
      "componentType": 5126,
      "count": 1907,
      "max": [
        0.875,
        1.0
      ],
      "min": [
        0.125,
        0.0
      ],
      "type": "VEC2"
    },
    {
      "bufferView": 1,
      "byteOffset": 61024,
      "componentType": 5126,
      "count": 1907,
      "max": [
        1.1332610845565796,
        1.13326096534729
      ],
      "min": [
        -0.13326090574264526,
        -0.1332610845565796
      ],
      "type": "VEC2"
    },
    {
      "bufferView": 0,
      "componentType": 5125,
      "count": 3096,
      "type": "SCALAR"
    },
    {
      "bufferView": 2,
      "byteOffset": 45768,
      "componentType": 5126,
      "count": 56,
      "max": [
        1.0,
        1.0,
        1.0
      ],
      "min": [
        -1.0,
        -1.9036750793457031,
        -1.0
      ],
      "type": "VEC3"
    },
    {
      "bufferView": 2,
      "byteOffset": 46440,
      "componentType": 5126,
      "count": 56,
      "max": [
        1.0,
        1.0,
        1.0
      ],
      "min": [
        -1.0,
        -1.0,
        -1.0
      ],
      "type": "VEC3"
    },
    {
      "bufferView": 1,
      "byteOffset": 76280,
      "componentType": 5126,
      "count": 56,
      "max": [
        0.875,
        1.0
      ],
      "min": [
        0.125,
        0.0
      ],
      "type": "VEC2"
    },
    {
      "bufferView": 0,
      "byteOffset": 12384,
      "componentType": 5125,
      "count": 84,
      "type": "SCALAR"
    },
    {
      "bufferView": 2,
      "byteOffset": 47112,
      "componentType": 5126,
      "count": 56,
      "max": [
        1.2358709573745728,
        -40.93513488769531,
        0.9999999403953552
      ],
      "min": [
        -0.9630576968193054,
        -43.838809967041016,
        -0.9999999403953552
      ],
      "type": "VEC3"
    },
    {
      "bufferView": 2,
      "byteOffset": 47784,
      "componentType": 5126,
      "count": 56,
      "max": [
        1.0,
        1.0,
        1.0
      ],
      "min": [
        -1.0,
        -1.0,
        -1.0
      ],
      "type": "VEC3"
    },
    {
      "bufferView": 1,
      "byteOffset": 76728,
      "componentType": 5126,
      "count": 56,
      "max": [
        0.875,
        1.0
      ],
      "min": [
        0.125,
        0.0
      ],
      "type": "VEC2"
    },
    {
      "bufferView": 0,
      "byteOffset": 12720,
      "componentType": 5125,
      "count": 84,
      "type": "SCALAR"
    },
    {
      "bufferView": 2,
      "byteOffset": 48456,
      "componentType": 5126,
      "count": 2536,
      "max": [
        1.0,
        2.104518175125122,
        1.0
      ],
      "min": [
        -1.030268669128418,
        0.0,
        -0.9999999403953552
      ],
      "type": "VEC3"
    },
    {
      "bufferView": 2,
      "byteOffset": 78888,
      "componentType": 5126,
      "count": 2536,
      "max": [
        1.0,
        1.0,
        1.0
      ],
      "min": [
        -1.0,
        -1.0,
        -1.0
      ],
      "type": "VEC3"
    },
    {
      "bufferView": 1,
      "byteOffset": 77176,
      "componentType": 5126,
      "count": 2536,
      "max": [
        0.875,
        1.0
      ],
      "min": [
        0.0,
        0.0
      ],
      "type": "VEC2"
    },
    {
      "bufferView": 1,
      "byteOffset": 97464,
      "componentType": 5126,
      "count": 2536,
      "max": [
        1.1577762365341187,
        1.150283694267273
      ],
      "min": [
        -0.15028370916843414,
        -0.1577761173248291
      ],
      "type": "VEC2"
    },
    {
      "bufferView": 0,
      "byteOffset": 13056,
      "componentType": 5125,
      "count": 8289,
      "type": "SCALAR"
    },
    {
      "bufferView": 2,
      "byteOffset": 109320,
      "componentType": 5126,
      "count": 89,
      "max": [
        1.0,
        2.0,
        1.0
      ],
      "min": [
        -1.030268669128418,
        0.10543346405029297,
        -1.0
      ],
      "type": "VEC3"
    },
    {
      "bufferView": 2,
      "byteOffset": 110388,
      "componentType": 5126,
      "count": 89,
      "max": [
        1.0,
        0.9969174265861511,
        1.0
      ],
      "min": [
        -1.0,
        -4.330945913011419e-08,
        -1.0
      ],
      "type": "VEC3"
    },
    {
      "bufferView": 1,
      "byteOffset": 117752,
      "componentType": 5126,
      "count": 89,
      "max": [
        0.798625111579895,
        0.9923961758613586
      ],
      "min": [
        0.3881791830062866,
        0.014876365661621094
      ],
      "type": "VEC2"
    },
    {
      "bufferView": 0,
      "byteOffset": 46212,
      "componentType": 5125,
      "count": 231,
      "type": "SCALAR"
    },
    {
      "bufferView": 2,
      "byteOffset": 111456,
      "componentType": 5126,
      "count": 160,
      "max": [
        5.385959980230837e-07,
        1.0,
        0.9999994039535522
      ],
      "min": [
        -0.9999990463256836,
        -4.371138828673793e-08,
        -0.9999987483024597
      ],
      "type": "VEC3"
    },
    {
      "bufferView": 2,
      "byteOffset": 113376,
      "componentType": 5126,
      "count": 160,
      "max": [
        -0.019790679216384888,
        0.9980148077011108,
        0.9904384613037109
      ],
      "min": [
        -0.9951850175857544,
        0.09754525125026703,
        -0.9904387593269348
      ],
      "type": "VEC3"
    },
    {
      "bufferView": 1,
      "byteOffset": 118464,
      "componentType": 5126,
      "count": 160,
      "max": [
        1.0000001192092896,
        0.5
      ],
      "min": [
        0.0,
        0.0
      ],
      "type": "VEC2"
    },
    {
      "bufferView": 0,
      "byteOffset": 47136,
      "componentType": 5125,
      "count": 720,
      "type": "SCALAR"
    },
    {
      "bufferView": 2,
      "byteOffset": 115296,
      "componentType": 5126,
      "count": 160,
      "max": [
        -0.8499578237533569,
        91.60276794433594,
        0.9999980926513672
      ],
      "min": [
        -1.9182301759719849,
        90.60276794433594,
        -1.0
      ],
      "type": "VEC3"
    },
    {
      "bufferView": 2,
      "byteOffset": 117216,
      "componentType": 5126,
      "count": 160,
      "max": [
        -0.018551437184214592,
        -0.09760155528783798,
        0.9910224080085754
      ],
      "min": [
        -0.9945108890533447,
        -0.9983343482017517,
        -0.9910223484039307
      ],
      "type": "VEC3"
    },
    {
      "bufferView": 1,
      "byteOffset": 119744,
      "componentType": 5126,
      "count": 160,
      "max": [
        1.0000001192092896,
        0.5
      ],
      "min": [
        0.0,
        0.0
      ],
      "type": "VEC2"
    },
    {
      "bufferView": 0,
      "byteOffset": 50016,
      "componentType": 5125,
      "count": 720,
      "type": "SCALAR"
    }
  ],
  "asset": {
    "extras": {
      "author": "ChillLitoStudio (https://sketchfab.com/ChillLitoStudio)",
      "license": "CC-BY-4.0 (http://creativecommons.org/licenses/by/4.0/)",
      "source": "https://sketchfab.com/3d-models/showcase-012a565d39a644ea89685ae6cd4e5d8c",
      "title": "Showcase"
    },
    "generator": "Sketchfab-13.58.0",
    "version": "2.0"
  },
  "bufferViews": [
    {
      "buffer": 0,
      "byteLength": 52896,
      "name": "floatBufferViews",
      "target": 34963
    },
    {
      "buffer": 0,
      "byteLength": 121024,
      "byteOffset": 52896,
      "byteStride": 8,
      "name": "floatBufferViews",
      "target": 34962
    },
    {
      "buffer": 0,
      "byteLength": 119136,
      "byteOffset": 173920,
      "byteStride": 12,
      "name": "floatBufferViews",
      "target": 34962
    },
    {
      "buffer": 0,
      "byteLength": 30512,
      "byteOffset": 293056,
      "byteStride": 16,
      "name": "floatBufferViews",
      "target": 34962
    }
  ],
  "buffers": [
    {
      "byteLength": 323568,
      "uri": "scene.bin"
    }
  ],
  "extensionsUsed": [
    "KHR_materials_transmission"
  ],
  "images": [
    {
      "uri": "textures/Wood.001_baseColor.jpeg"
    },
    {
      "uri": "textures/Wood.001_metallicRoughness.png"
    },
    {
      "uri": "textures/Wood.001_normal.jpeg"
    }
  ],
  "materials": [
    {
      "doubleSided": true,
      "name": "Wood.001",
      "normalTexture": {
        "index": 2,
        "texCoord": 2
      },
      "pbrMetallicRoughness": {
        "baseColorTexture": {
          "index": 0
        },
        "metallicFactor": 0.0,
        "metallicRoughnessTexture": {
          "index": 1,
          "texCoord": 1
        }
      }
    },
    {
      "doubleSided": true,
      "name": ".001",
      "pbrMetallicRoughness": {
        "baseColorFactor": [
          0.0134098,
          0.0134098,
          0.0134098,
          1.0
        ],
        "metallicFactor": 0.858268,
        "roughnessFactor": 0.5
      }
    },
    {
      "doubleSided": true,
      "name": "material",
      "pbrMetallicRoughness": {
        "baseColorFactor": [
          0.0134098,
          0.0134098,
          0.0134098,
          1.0
        ],
        "metallicFactor": 0.858268,
        "roughnessFactor": 0.5
      }
    },
    {
      "doubleSided": true,
      "name": ".003",
      "pbrMetallicRoughness": {
        "baseColorFactor": [
          0.00103118,
          0.00103118,
          0.00103118,
          1.0
        ],
        "metallicFactor": 0.0,
        "roughnessFactor": 0.5
      }
    },
    {
      "alphaMode": "BLEND",
      "doubleSided": true,
      "extensions": {
        "KHR_materials_transmission": {
          "transmissionFactor": 1.0
        }
      },
      "name": ".006",
      "pbrMetallicRoughness": {
        "baseColorFactor": [
          0.8,
          0.8,
          0.8,
          0.25
        ],
        "metallicFactor": 0.0,
        "roughnessFactor": 0.0
      }
    },
    {
      "doubleSided": true,
      "name": ".007",
      "pbrMetallicRoughness": {
        "baseColorFactor": [
          0.0,
          0.0,
          0.0,
          1.0
        ],
        "metallicFactor": 0.0,
        "roughnessFactor": 0.5
      }
    },
    {
      "doubleSided": true,
      "name": ".004",
      "pbrMetallicRoughness": {
        "baseColorFactor": [
          0.0,
          0.0,
          0.0,
          1.0
        ],
        "metallicFactor": 0.0,
        "roughnessFactor": 0.5
      }
    }
  ],
  "meshes": [
    {
      "name": "Object_0",
      "primitives": [
        {
          "attributes": {
            "NORMAL": 1,
            "POSITION": 0,
            "TANGENT": 2,
            "TEXCOORD_0": 3,
            "TEXCOORD_1": 4,
            "TEXCOORD_2": 5,
            "TEXCOORD_3": 6,
            "TEXCOORD_4": 7
          },
          "indices": 8,
          "material": 0,
          "mode": 4
        }
      ]
    },
    {
      "name": "Object_1",
      "primitives": [
        {
          "attributes": {
            "NORMAL": 10,
            "POSITION": 9,
            "TEXCOORD_0": 11
          },
          "indices": 12,
          "material": 1,
          "mode": 4
        }
      ]
    },
    {
      "name": "Object_2",
      "primitives": [
        {
          "attributes": {
            "NORMAL": 14,
            "POSITION": 13,
            "TEXCOORD_0": 15
          },
          "indices": 16,
          "material": 2,
          "mode": 4
        }
      ]
    },
    {
      "name": "Object_3",
      "primitives": [
        {
          "attributes": {
            "NORMAL": 18,
            "POSITION": 17,
            "TEXCOORD_0": 19,
            "TEXCOORD_1": 20
          },
          "indices": 21,
          "material": 3,
          "mode": 4
        }
      ]
    },
    {
      "name": "Object_4",
      "primitives": [
        {
          "attributes": {
            "NORMAL": 23,
            "POSITION": 22,
            "TEXCOORD_0": 24
          },
          "indices": 25,
          "material": 4,
          "mode": 4
        }
      ]
    },
    {
      "name": "Object_5",
      "primitives": [
        {
          "attributes": {
            "NORMAL": 27,
            "POSITION": 26,
            "TEXCOORD_0": 28
          },
          "indices": 29,
          "material": 5,
          "mode": 4
        }
      ]
    },
    {
      "name": "Object_6",
      "primitives": [
        {
          "attributes": {
            "NORMAL": 31,
            "POSITION": 30,
            "TEXCOORD_0": 32
          },
          "indices": 33,
          "material": 6,
          "mode": 4
        }
      ]
    }
  ],
  "nodes": [
    {
      "children": [
        1
      ],
      "matrix": [
        1.0,
        0.0,
        0.0,
        0.0,
        0.0,
        2.220446049250313e-16,
        -1.0,
        0.0,
        0.0,
        1.0,
        2.220446049250313e-16,
        0.0,
        0.0,
        0.0,
        0.0,
        1.0
      ],
      "name": "Sketchfab_model"
    },
    {
      "children": [
        2
      ],
      "name": "root"
    },
    {
      "children": [
        3
      ],
      "matrix": [
        1.0,
        0.0,
        0.0,
        0.0,
        0.0,
        2.220446049250313e-16,
        1.0,
        0.0,
        0.0,
        -1.0,
        2.220446049250313e-16,
        0.0,
        0.0,
        0.0,
        0.0,
        1.0
      ],
      "name": "GLTF_SceneRootNode"
    },
    {
      "children": [
        4,
        5
      ],
      "matrix": [
        0.5634681582450867,
        0.0,
        0.0,
        0.0,
        0.0,
        0.5634681582450867,
        0.0,
        0.0,
        0.0,
        0.0,
        1.241755485534668,
        0.0,
        1.008413314819336,
        0.0,
        -0.5116024017333984,
        1.0
      ],
      "name": "Cafe showcase_4"
    },
    {
      "mesh": 0,
      "name": "Object_4"
    },
    {
      "children": [
        6,
        7,
        8,
        10,
        12
      ],
      "matrix": [
        0.8291153907775879,
        0.0,
        0.0,
        0.0,
        0.0,
        0.014436282217502594,
        0.0,
        0.0,
        0.0,
        0.0,
        0.9448883533477783,
        0.0,
        -0.11908545345067978,
        3.2816085815429688,
        0.0,
        1.0
      ],
      "name": "plate.001_3"
    },
    {
      "mesh": 1,
      "name": "Object_6"
    },
    {
      "mesh": 2,
      "name": "Object_7"
    },
    {
      "children": [
        9
      ],
      "matrix": [
        1.1678043603897095,
        0.0,
        0.0,
        0.0,
        0.0,
        67.0702133178711,
        0.0,
        0.0,
        0.0,
        0.0,
        1.0247185230255127,
        0.0,
        0.14362958073616028,
        -88.77690124511719,
        0.0,
        1.0
      ],
      "name": "black_0"
    },
    {
      "mesh": 3,
      "name": "Object_9"
    },
    {
      "children": [
        11
      ],
      "matrix": [
        1.1678043603897095,
        0.0,
        0.0,
        0.0,
        0.0,
        67.0702133178711,
        0.0,
        0.0,
        0.0,
        0.0,
        1.0247185230255127,
        0.0,
        0.14362958073616028,
        -88.77690124511719,
        0.0,
        1.0
      ],
      "name": "glass_1"
    },
    {
      "mesh": 4,
      "name": "Object_11"
    },
    {
      "children": [
        13,
        14
      ],
      "matrix": [
        0.05323753133416176,
        0.0,
        0.0,
        0.0,
        0.0,
        -2.5336259061736315e-07,
        0.021780524401383203,
        0.0,
        0.0,
        -9.785347937875542,
        -0.00011382834765332702,
        0.0,
        -1.0156216621398926,
        -17.268890380859375,
        -0.994339108467102,
        1.0
      ],
      "name": "handle.001_2"
    },
    {
      "mesh": 5,
      "name": "Object_13"
    },
    {
      "mesh": 6,
      "name": "Object_14"
    }
  ],
  "samplers": [
    {
      "magFilter": 9729,
      "minFilter": 9987,
      "wrapS": 10497,
      "wrapT": 10497
    }
  ],
  "scene": 0,
  "scenes": [
    {
      "name": "Sketchfab_Scene",
      "nodes": [
        0
      ]
    }
  ],
  "textures": [
    {
      "sampler": 0,
      "source": 0
    },
    {
      "sampler": 0,
      "source": 1
    },
    {
      "sampler": 0,
      "source": 2
    }
  ]
}
